# xmcd
#
# Track frame offsets: 
#        150
#        12425
#        24595
#        38235
#        46205
#        56245
#        67982
#        80200
#        90920
#        105590
#        125447
#        136097
#        146920
#        158895
#        171525
#        182140
#        193210
#        205347
#        215655
#        226310
#
# Disc length: 3167 seconds
#
# Revision: 5
# Processed by: cddbd v1.5.2PL0 Copyright (c) Steve Scherf et al.
# Submitted via: ExactAudioCopy v0.99pb5
#
DISCID=270c5d14
DTITLE=Chuck Berry - The best of Chuck Berry
DYEAR=1994
DGENRE=Rock and Roll
TTITLE0=No particular place to go
TTITLE1=School day (ring, ring goes the bell)
TTITLE2=Sweet little sixteen
TTITLE3=Let it rock
TTITLE4=Memphis Tennessee
TTITLE5=Nadine (is it you)
TTITLE6=You never can tell
TTITLE7=Promised land
TTITLE8=Reelin' and rockin'
TTITLE9=My ding-a-ling
TTITLE10=Maybelline
TTITLE11=Roll over Beethoven
TTITLE12=Johnny B. Goode
TTITLE13=Carol
TTITLE14=Almost grown
TTITLE15=Back in the USA
TTITLE16=Little queenie
TTITLE17=Brown eyed handsome man
TTITLE18=Sweet little rock and roller
TTITLE19=Rock and roll music
EXTD=
EXTT0=
EXTT1=
EXTT2=
EXTT3=
EXTT4=
EXTT5=
EXTT6=
EXTT7=
EXTT8=
EXTT9=
EXTT10=
EXTT11=
EXTT12=
EXTT13=
EXTT14=
EXTT15=
EXTT16=
EXTT17=
EXTT18=
EXTT19=
PLAYORDER=
